<?xml version="1.0" encoding="utf-8"?>
<!-- Generator: Adobe Illustrator 16.0.0, SVG Export Plug-In . SVG Version: 6.00 Build 0)  -->
<!DOCTYPE svg PUBLIC "-//W3C//DTD SVG 1.1//EN" "http://www.w3.org/Graphics/SVG/1.1/DTD/svg11.dtd">
<svg version="1.1" id="Layer_1" xmlns="http://www.w3.org/2000/svg" xmlns:xlink="http://www.w3.org/1999/xlink" x="0px" y="0px"
	 width="75px" height="30px" viewBox="0 0 75 30" enable-background="new 0 0 75 30" xml:space="preserve">
<path fill="#95B750" d="M74.842,15.593c0,0-12.082-15.375-32.707-15.555C21.508-0.142,0.151,14.942,0.151,14.942
	S16.339,29.767,36.965,29.89C55.406,30,74.842,15.593,74.842,15.593z"/>
<path fill="#417F5F" d="M0.159,14.955l74.686,0.644c0,0-14.232,13.516-37.875,14.298C16.356,30.579,0.159,14.955,0.159,14.955z"/>
<g>
	<path fill="#619655" d="M7.313,15.017c0,0,3.669-0.303,9.171-0.492c2.751-0.105,5.96-0.184,9.398-0.226
		c1.719-0.011,3.496-0.052,5.3-0.041c1.805,0.004,3.638,0.008,5.471,0.012c1.833,0.027,3.667,0.055,5.471,0.081
		c1.805,0.016,3.58,0.091,5.299,0.131c3.437,0.1,6.644,0.235,9.393,0.388c5.497,0.285,9.161,0.654,9.161,0.653
		s-3.669,0.305-9.171,0.495c-2.751,0.105-5.961,0.185-9.398,0.225c-1.719,0.011-3.495,0.054-5.3,0.039
		c-1.805-0.004-3.639-0.009-5.472-0.013c-1.833-0.028-3.667-0.055-5.471-0.082c-1.805-0.02-3.58-0.091-5.299-0.132
		c-3.437-0.101-6.644-0.235-9.393-0.388C10.977,15.383,7.313,15.016,7.313,15.017z"/>
</g>
<circle opacity="0.5" fill="#869982" cx="29.498" cy="25.984" r="1.439"/>
<circle opacity="0.5" fill="#869982" cx="47.722" cy="21.816" r="1.441"/>
<circle opacity="0.5" fill="#668274" cx="37.504" cy="21.061" r="1.59"/>
<circle opacity="0.5" fill="#668274" cx="44.413" cy="10.275" r="1.588"/>
<circle opacity="0.5" fill="#668274" cx="52.654" cy="7.912" r="1.589"/>
<circle opacity="0.5" fill="#668274" cx="35.217" cy="7.316" r="1.59"/>
</svg>
