<?xml version="1.0" encoding="utf-8"?>
<!-- Generator: Adobe Illustrator 16.0.0, SVG Export Plug-In . SVG Version: 6.00 Build 0)  -->
<!DOCTYPE svg PUBLIC "-//W3C//DTD SVG 1.1//EN" "http://www.w3.org/Graphics/SVG/1.1/DTD/svg11.dtd">
<svg version="1.1" id="Layer_1" xmlns="http://www.w3.org/2000/svg" xmlns:xlink="http://www.w3.org/1999/xlink" x="0px" y="0px"
	 width="106px" height="44px" viewBox="0 0 106 44" enable-background="new 0 0 106 44" xml:space="preserve">
<path fill="#95B750" d="M105.998,22.293c0,0-26.723-21.647-55.809-21.808C21.106,0.322,0.674,21.706,0.674,21.706
	s26.726,21.645,55.81,21.81C85.568,43.676,105.998,22.293,105.998,22.293z"/>
<path fill="#417F5F" d="M0.674,21.706L106,22.293c0,0-20.432,21.383-49.516,21.223C27.4,43.351,0.674,21.706,0.674,21.706z"/>
<g>
	<path fill="#619655" d="M18.598,21.805c0,0,1.107-0.082,3.043-0.177c1.937-0.075,4.704-0.239,8.023-0.333
		c3.32-0.11,7.192-0.195,11.342-0.243c2.074-0.015,4.218-0.059,6.396-0.051c2.178,0,4.391,0.001,6.603,0.002
		c2.213,0.024,4.426,0.047,6.604,0.071c2.178,0.013,4.321,0.083,6.396,0.121c4.148,0.093,8.02,0.222,11.338,0.37
		c3.318,0.13,6.083,0.328,8.02,0.424c1.936,0.117,3.041,0.211,3.041,0.211s-1.106,0.083-3.044,0.178
		c-1.937,0.075-4.703,0.241-8.022,0.335c-3.32,0.11-7.193,0.196-11.342,0.243c-2.075,0.014-4.219,0.061-6.397,0.049
		c-2.178-0.001-4.391-0.002-6.603-0.003c-2.213-0.024-4.425-0.048-6.604-0.072c-2.178-0.016-4.321-0.084-6.396-0.121
		c-4.148-0.095-8.02-0.224-11.338-0.371c-3.319-0.131-6.083-0.326-8.019-0.423C19.704,21.898,18.598,21.805,18.598,21.805z"/>
</g>
<circle opacity="0.5" fill="#869982" cx="40.454" cy="31.245" r="1.439"/>
<circle opacity="0.5" fill="#869982" cx="57.5" cy="28.764" r="1.439"/>
<circle opacity="0.5" fill="#869982" cx="48.241" cy="37.445" r="1.439"/>
<circle opacity="0.5" fill="#668274" cx="59.542" cy="16.683" r="1.59"/>
<circle opacity="0.5" fill="#668274" cx="41.671" cy="6.717" r="1.59"/>
<circle opacity="0.5" fill="#668274" cx="66.894" cy="7.969" r="1.59"/>
<circle opacity="0.5" fill="#668274" cx="52.694" cy="8.855" r="1.589"/>
<circle opacity="0.5" fill="#869982" cx="68.604" cy="34.615" r="1.439"/>
</svg>
