<?xml version="1.0" encoding="utf-8"?>
<!-- Generator: Adobe Illustrator 16.0.0, SVG Export Plug-In . SVG Version: 6.00 Build 0)  -->
<!DOCTYPE svg PUBLIC "-//W3C//DTD SVG 1.1//EN" "http://www.w3.org/Graphics/SVG/1.1/DTD/svg11.dtd">
<svg version="1.1" id="Layer_1" xmlns="http://www.w3.org/2000/svg" xmlns:xlink="http://www.w3.org/1999/xlink" x="0px" y="0px"
	 width="100px" height="70px" viewBox="0 0 100 70" enable-background="new 0 0 100 70" xml:space="preserve">
<path fill="#E8E6DC" d="M83.318,25.18l0.033,0.023c1.001,0.702,2.138,1.096,3.201,1.105c1.133,0.012,2.056-0.407,2.597-1.178
	c1.084-1.544,0.264-3.94-1.867-5.455l-0.033-0.023c-1-0.702-2.137-1.095-3.2-1.105c-0.351-0.004-0.68,0.035-0.983,0.112l5.07-5.069
	c-0.317,1.463,0.541,3.271,2.271,4.501l0.034,0.024c1,0.702,2.137,1.096,3.201,1.105c1.133,0.011,2.055-0.407,2.596-1.179
	c1.084-1.543,0.264-3.939-1.867-5.454l-0.032-0.023c-1.001-0.702-2.138-1.095-3.201-1.105c-0.351-0.004-0.68,0.035-0.983,0.112
	l3.021-3.021c1.405,0.751,3.496,0.234,5.107-1.368c0.866-0.862,1.452-1.912,1.647-2.958c0.209-1.113-0.042-2.095-0.712-2.767
	c-1.342-1.342-3.854-0.939-5.72,0.918c-0.866,0.862-1.452,1.912-1.647,2.958c-0.153,0.812-0.058,1.553,0.261,2.153l-3.009,3.01
	c0.074-0.3,0.111-0.622,0.108-0.966c-0.011-1.062-0.403-2.199-1.106-3.2l-0.022-0.033c-1.516-2.131-3.912-2.95-5.455-1.866
	c-0.771,0.54-1.189,1.463-1.179,2.596c0.011,1.063,0.403,2.2,1.106,3.201l0.023,0.033c1.225,1.723,3.023,2.582,4.483,2.275
	l-5.047,5.047c0.074-0.298,0.111-0.622,0.107-0.964c-0.01-1.063-0.402-2.201-1.105-3.202l-0.023-0.032
	c-1.515-2.131-3.911-2.95-5.454-1.866c-0.771,0.541-1.189,1.463-1.179,2.596c0.011,1.064,0.403,2.2,1.106,3.201l0.023,0.033
	c1.226,1.723,3.023,2.582,4.483,2.276l-5.047,5.047c0.074-0.3,0.111-0.622,0.108-0.966c-0.011-1.062-0.403-2.199-1.106-3.2
	l-0.023-0.033c-1.515-2.131-3.911-2.95-5.454-1.866c-0.771,0.541-1.189,1.463-1.179,2.596c0.011,1.063,0.403,2.2,1.105,3.201
	l0.024,0.033c1.225,1.724,3.023,2.582,4.483,2.276l-5.047,5.046c0.074-0.298,0.11-0.621,0.108-0.964
	c-0.011-1.064-0.404-2.2-1.106-3.201l-0.023-0.033c-1.515-2.13-3.911-2.95-5.454-1.866c-0.771,0.541-1.189,1.463-1.179,2.596
	c0.011,1.063,0.403,2.2,1.105,3.201l0.024,0.033c1.225,1.723,3.023,2.582,4.483,2.276l-5.047,5.046
	c0.074-0.299,0.111-0.621,0.107-0.965c-0.01-1.062-0.403-2.199-1.105-3.2l-0.023-0.033c-1.516-2.13-3.911-2.95-5.454-1.866
	c-0.771,0.541-1.189,1.462-1.179,2.597c0.011,1.063,0.403,2.2,1.105,3.2l0.024,0.033c1.225,1.723,3.023,2.582,4.482,2.275
	L31.045,68.551c-0.293,0.295-0.293,0.77,0,1.064c0.293,0.293,0.77,0.293,1.063,0l27.674-27.674
	c-0.316,1.463,0.542,3.271,2.271,4.502l0.033,0.023c1.001,0.703,2.138,1.096,3.201,1.105c1.133,0.012,2.056-0.406,2.596-1.18
	c1.085-1.541,0.265-3.938-1.866-5.453l-0.033-0.023c-1-0.703-2.137-1.096-3.201-1.105c-0.35-0.004-0.679,0.035-0.982,0.113
	l5.069-5.07c-0.316,1.464,0.542,3.271,2.271,4.502l0.033,0.023c1.001,0.701,2.138,1.096,3.201,1.105
	c1.134,0.012,2.056-0.408,2.597-1.178c1.083-1.545,0.264-3.939-1.867-5.455l-0.032-0.023c-1.002-0.702-2.138-1.096-3.201-1.105
	c-0.351-0.004-0.68,0.036-0.983,0.112l5.069-5.069c-0.317,1.463,0.542,3.271,2.271,4.501l0.033,0.024
	c1.001,0.702,2.138,1.095,3.201,1.105c1.133,0.012,2.055-0.407,2.597-1.179c1.084-1.543,0.264-3.939-1.867-5.454l-0.033-0.023
	c-1-0.702-2.138-1.095-3.2-1.105c-0.351-0.003-0.68,0.036-0.983,0.113l5.069-5.07C80.73,22.141,81.589,23.949,83.318,25.18z
	 M84.039,19.549c0.862,0.009,1.798,0.337,2.635,0.924l0.027,0.02c1.647,1.173,2.378,2.994,1.628,4.062
	c-0.346,0.492-0.974,0.76-1.767,0.752c-0.862-0.009-1.799-0.337-2.635-0.924l-0.028-0.021c-1.439-1.023-2.178-2.544-1.84-3.624
	l3.155,2.243c0.226,0.161,0.538,0.107,0.699-0.118c0.16-0.226,0.107-0.538-0.118-0.699l-3.145-2.235
	C83.005,19.678,83.479,19.544,84.039,19.549z M91.127,12.461c0.862,0.009,1.798,0.337,2.634,0.924l0.028,0.02
	c1.647,1.172,2.378,2.994,1.628,4.062c-0.346,0.493-0.973,0.76-1.767,0.753c-0.862-0.01-1.798-0.337-2.635-0.925l-0.028-0.02
	c-1.439-1.023-2.178-2.545-1.84-3.624l3.155,2.243c0.226,0.161,0.538,0.108,0.699-0.118c0.16-0.226,0.107-0.538-0.118-0.698
	l-3.145-2.236C90.093,12.59,90.566,12.455,91.127,12.461z M84.774,8.365l2.244,3.155c-1.08,0.338-2.601-0.4-3.624-1.84l-0.021-0.028
	c-0.588-0.836-0.916-1.771-0.924-2.635c-0.008-0.793,0.26-1.421,0.752-1.767c1.068-0.75,2.89-0.02,4.062,1.628l0.02,0.028
	c0.587,0.836,0.915,1.771,0.924,2.635c0.006,0.559-0.129,1.033-0.38,1.387l-2.235-3.145c-0.16-0.226-0.474-0.278-0.699-0.118
	S84.614,8.14,84.774,8.365z M77.687,15.453l2.243,3.155c-1.079,0.339-2.601-0.399-3.624-1.84l-0.021-0.028
	c-0.587-0.836-0.915-1.772-0.924-2.635c-0.007-0.793,0.26-1.421,0.753-1.767c1.067-0.749,2.89-0.02,4.062,1.629l0.02,0.027
	c0.587,0.836,0.915,1.771,0.924,2.634c0.006,0.56-0.129,1.034-0.38,1.389l-2.235-3.146c-0.161-0.226-0.474-0.277-0.699-0.117
	S77.526,15.229,77.687,15.453z M70.599,22.541l2.243,3.155c-1.079,0.339-2.6-0.399-3.624-1.84l-0.02-0.028
	c-0.588-0.836-0.916-1.772-0.924-2.635c-0.008-0.793,0.259-1.421,0.752-1.766c1.067-0.75,2.89-0.021,4.062,1.627l0.02,0.028
	c0.587,0.836,0.915,1.771,0.924,2.634c0.005,0.561-0.129,1.034-0.38,1.388l-2.236-3.144c-0.16-0.226-0.473-0.279-0.698-0.118
	C70.491,22.003,70.438,22.316,70.599,22.541z M63.511,29.629l2.244,3.156c-1.08,0.338-2.602-0.4-3.625-1.841l-0.021-0.028
	c-0.587-0.836-0.915-1.772-0.923-2.635c-0.008-0.793,0.259-1.42,0.752-1.766c1.067-0.751,2.89-0.021,4.062,1.627l0.02,0.028
	c0.587,0.836,0.915,1.772,0.924,2.635c0.005,0.56-0.129,1.033-0.38,1.388l-2.236-3.145c-0.16-0.227-0.473-0.279-0.698-0.118
	C63.403,29.091,63.351,29.403,63.511,29.629z M56.423,36.718l2.243,3.155c-1.079,0.338-2.601-0.4-3.624-1.84l-0.021-0.029
	c-0.587-0.836-0.915-1.772-0.924-2.635c-0.007-0.793,0.26-1.42,0.753-1.767c1.068-0.75,2.89-0.02,4.061,1.628l0.021,0.028
	c0.587,0.837,0.915,1.772,0.923,2.634c0.006,0.561-0.128,1.035-0.379,1.389l-2.235-3.146c-0.161-0.225-0.474-0.277-0.7-0.117
	C56.314,36.18,56.263,36.491,56.423,36.718z M62.774,40.812c0.863,0.01,1.799,0.336,2.636,0.924l0.027,0.02
	c1.647,1.172,2.378,2.994,1.627,4.062c-0.346,0.492-0.973,0.76-1.766,0.752c-0.862-0.008-1.798-0.338-2.635-0.924l-0.028-0.021
	c-1.439-1.023-2.179-2.543-1.84-3.623l3.155,2.244c0.226,0.16,0.538,0.107,0.698-0.119c0.161-0.225,0.108-0.539-0.118-0.699
	l-3.144-2.234C61.741,40.941,62.215,40.809,62.774,40.812z M69.863,33.726c0.862,0.008,1.798,0.336,2.634,0.923l0.028,0.021
	c1.647,1.171,2.378,2.993,1.628,4.062c-0.346,0.492-0.973,0.76-1.767,0.752c-0.862-0.008-1.798-0.338-2.635-0.924l-0.028-0.021
	c-1.439-1.021-2.179-2.543-1.84-3.623l3.155,2.244c0.226,0.16,0.538,0.107,0.698-0.119c0.161-0.226,0.108-0.538-0.117-0.698
	l-3.145-2.235C68.829,33.854,69.304,33.72,69.863,33.726z M76.951,26.637c0.862,0.009,1.798,0.337,2.634,0.925l0.028,0.019
	c1.647,1.172,2.378,2.994,1.628,4.062c-0.346,0.493-0.974,0.76-1.767,0.753c-0.862-0.009-1.799-0.337-2.635-0.925l-0.028-0.019
	c-1.439-1.024-2.178-2.545-1.84-3.625l3.155,2.243c0.226,0.16,0.538,0.108,0.699-0.117c0.16-0.226,0.107-0.539-0.118-0.699
	l-3.145-2.236C75.917,26.767,76.392,26.632,76.951,26.637z M92.834,5.519c0.159-0.848,0.646-1.712,1.37-2.433
	c1.419-1.412,3.391-1.834,4.308-0.916c0.425,0.426,0.578,1.091,0.432,1.87c-0.159,0.848-0.645,1.712-1.369,2.432
	c-1.133,1.127-2.614,1.62-3.632,1.311l1.926-1.925c0.293-0.294,0.293-0.77,0-1.063c-0.294-0.293-0.771-0.293-1.063,0l-1.929,1.928
	C92.769,6.373,92.75,5.966,92.834,5.519z"/>
<path fill="#E8E6DC" d="M31.038,17.789l-1.384-2.116l-4.998,6.33l2.739,4.424l-9.164-9.17l0.032-0.058l6.439,0.094l2.751-7.681
	l-2.503-0.006L24.803,4.24l-4.574,2.74l-1.384-2.117l-4.998,6.33l2.727,4.405l-4.761-4.764l1.701-6.043L6.961,0.091L6.215,2.507
	l-5.153-1.37l1.34,5.198L0,7.033l4.767,6.62l5.938-1.801l4.914,4.916L11.08,13.96l-6.329,4.998l2.116,1.384l-2.74,4.574l5.367,0.147
	L9.5,27.567l7.68-2.752l-0.094-6.438l0.089-0.05l9.233,9.239L21.89,24.77l-6.33,4.998l2.116,1.384l-2.74,4.573l5.366,0.149
	l0.006,2.503l7.68-2.752l-0.094-6.439l0.084-0.046l8.865,8.87l-4.5-2.785l-6.33,4.998l2.116,1.383L25.39,46.18l5.367,0.148
	l0.007,2.502l7.68-2.75l-0.093-6.439l0.08-0.045l30.077,30.094c0.293,0.293,0.77,0.293,1.062,0l0,0
	c0.294-0.293,0.294-0.77,0.001-1.062L39.49,38.529l0.037-0.066l6.439,0.094l2.751-7.68l-2.502-0.007l-0.149-5.366l-4.574,2.74
	l-1.384-2.116l-4.998,6.33l2.75,4.441l-8.823-8.828l0.035-0.062l6.439,0.094l2.751-7.681l-2.503-0.007l-0.148-5.366L31.038,17.789z
	 M15.069,11.264l3.699-4.686l1.149,1.757l3.931-2.354l0.128,4.626l2.055,0.005L24,16.28l-5.187-0.075l2.54-4.591
	c0.134-0.243,0.047-0.548-0.195-0.683c-0.243-0.133-0.548-0.046-0.682,0.196l-2.592,4.685L15.069,11.264z M11.5,21.467l4.591-2.54
	l0.076,5.187l-5.669,2.031l-0.005-2.055l-4.626-0.129l2.355-3.93l-1.757-1.149l4.686-3.699l4.549,2.815l-4.684,2.592
	c-0.242,0.134-0.33,0.438-0.196,0.682C10.953,21.514,11.258,21.602,11.5,21.467z M22.31,32.276l4.591-2.54l0.076,5.187l-5.669,2.03
	l-0.005-2.055l-4.626-0.128l2.354-3.931l-1.756-1.149l4.685-3.699l4.549,2.816l-4.684,2.591c-0.242,0.135-0.33,0.439-0.196,0.682
	S22.067,32.41,22.31,32.276z M32.764,42.73l4.591-2.539l0.075,5.186l-5.669,2.031l-0.005-2.055l-4.626-0.129l2.355-3.93l-1.757-1.15
	l4.686-3.698l4.549,2.815l-4.684,2.592c-0.242,0.135-0.33,0.439-0.196,0.682C32.217,42.777,32.522,42.865,32.764,42.73z
	 M36.333,32.527l3.7-4.686l1.149,1.757l3.93-2.354l0.128,4.625l2.055,0.006l-2.031,5.668l-5.187-0.074l2.54-4.592
	c0.134-0.241,0.046-0.547-0.196-0.681s-0.547-0.046-0.682,0.196l-2.591,4.684L36.333,32.527z M5.161,12.486L1.643,7.601l1.973-0.573
	L2.461,2.546l4.428,1.177l0.619-2.006l4.85,3.479L11,10.021L7.721,6.74c-0.294-0.294-0.77-0.295-1.063-0.001l0,0
	c-0.293,0.294-0.293,0.77,0,1.063l3.244,3.246L5.161,12.486z M36.84,21.42l-2.031,5.669l-5.187-0.075l2.54-4.591
	c0.135-0.242,0.047-0.548-0.196-0.682c-0.242-0.134-0.547-0.046-0.681,0.196l-2.591,4.684l-2.816-4.549l3.699-4.685l1.149,1.757
	l3.931-2.354l0.128,4.626L36.84,21.42z"/>
</svg>
