<?xml version="1.0" encoding="utf-8"?>
<!-- Generator: Adobe Illustrator 16.0.0, SVG Export Plug-In . SVG Version: 6.00 Build 0)  -->
<!DOCTYPE svg PUBLIC "-//W3C//DTD SVG 1.1//EN" "http://www.w3.org/Graphics/SVG/1.1/DTD/svg11.dtd">
<svg version="1.1" id="Layer_1" xmlns="http://www.w3.org/2000/svg" xmlns:xlink="http://www.w3.org/1999/xlink" x="0px" y="0px"
	 width="226px" height="314px" viewBox="0 0 226 314" enable-background="new 0 0 226 314" xml:space="preserve">
<path fill="#101717" d="M29.188,258.771c-13.793,1.968-22.89,6.25-20.617,14.677C15.018,297.342,47.69,303.702,84,302.322
	c29.823-1.133,80.028,0.178,112.828-14.762c4.771-2.175,3.783-6.388,1.88-9.531c-9.388-15.51-56.187-17.451-84.729-17.904
	C100.93,259.918,56.113,254.934,29.188,258.771z"/>
<path fill="#B3332E" d="M181.102,152.566c0,11.972-35.22,24.911-81.081,24.911c-45.862,0-83.666-9.026-83.666-21
	c0-11.972,38.208-22.353,83.666-22.353C138.255,134.125,181.102,140.595,181.102,152.566z"/>
<path fill="#E54E36" d="M36.068,197.648c0,0,24.06,11.395,65.848,10.129c41.788-1.267,64.581-13.652,64.581-13.652
	s-3.86,79.71-8.011,88.602c-5.182,11.103-37.295,10.575-61.002,7.473c-20.869-2.731-36.433-6.676-41.094-11.779
	C49.431,270.799,36.068,197.648,36.068,197.648z"/>
<path fill="#B3332E" d="M96.389,219.917c21.95-1.392,45.791-4.247,69.5-13.905c0.899-14.402,1.803-23.666,1.803-23.666
	s-23.508,12.571-66.607,13.856c-43.101,1.284-67.916-10.281-67.916-10.281s2.314,10.657,5.909,27.396
	C51.872,216.988,70.429,221.562,96.389,219.917z"/>
<ellipse fill="#969189" cx="99.375" cy="164.359" rx="77.161" ry="17.986"/>
<path fill="#AA9C88" d="M120.204,150.26c0,3.979-14.408,3.979-14.408,0c0-3.978,3.224-7.206,7.206-7.206
	C116.979,143.054,120.204,146.282,120.204,150.26z"/>
<path fill="#84796A" d="M92.69,151.821c0,3.978-14.41,3.978-14.41,0c0-3.979,3.225-7.207,7.207-7.207
	C89.464,144.614,92.69,147.843,92.69,151.821z"/>
<path fill="#8E7D68" d="M107.111,158.244c-0.305-55.17-20.543-135.888-24.955-135.866c0,0,12.602,35.724,11.265,92.184
	c-0.382,16.155-4.724,33.817-7.782,43.682"/>
<path fill="#8E7D68" d="M92.69,54.024c8.103-8.259,18.745-48.777,20.458-52.487c0.013-0.029,0.519-1.98,1.271-1.694
	c1.406,0.533-16.952,62.018-18.494,68.591"/>
<path fill="#AA9C88" d="M135.93,150.26c0,3.979-14.408,3.979-14.408,0c0-3.978,3.223-7.206,7.205-7.206
	C132.704,143.054,135.93,146.282,135.93,150.26z"/>
<path fill="#84796A" d="M125.389,154.397c0,3.451-16.279,3.451-16.279,0c0-3.449,3.645-6.25,8.138-6.25
	C121.743,148.147,125.389,150.948,125.389,154.397z"/>
<path fill="#84796A" d="M149.141,154.758c0.145,4.41-16.978,4.969-17.121,0.56c-0.145-4.408,3.569-8.111,8.301-8.268
	C145.048,146.896,148.995,150.351,149.141,154.758z"/>
<path fill="#D34827" d="M109.109,142.214"/>
<path fill="#84796A" d="M98.711,158.236c0,3.979-14.409,3.979-14.409,0c0-3.979,3.225-7.206,7.205-7.206
	C95.486,151.03,98.711,154.259,98.711,158.236z"/>
<path fill="#BDAB9A" d="M113.316,159.852c0,3.977-14.41,3.977-14.41,0c0-3.979,3.226-7.208,7.207-7.208
	C110.091,152.644,113.316,155.872,113.316,159.852z"/>
<path fill="#A09280" d="M140.579,156.286c0,3.45-20.375,3.45-20.375,0c0-3.449,4.562-6.249,10.188-6.249
	S140.579,152.837,140.579,156.286z"/>
<path fill="#84796A" d="M46.515,157.545c0,2.673-20.374,2.673-20.374,0c0-2.675,4.561-4.843,10.188-4.843
	C41.955,152.702,46.515,154.87,46.515,157.545z"/>
<path fill="#84796A" d="M69.808,152.451c0,2.673-14.652,2.673-14.652,0c0-2.674,3.28-4.844,7.328-4.844
	C66.528,147.607,69.808,149.777,69.808,152.451z"/>
<path fill="#A09280" d="M80.957,152.503c0,3.979-14.409,3.979-14.409,0s3.225-7.206,7.206-7.206
	C77.733,145.297,80.957,148.524,80.957,152.503z"/>
<path fill="#BDAB9A" d="M87.077,159.083c0,3.084-14.409,3.084-14.409,0c0-3.083,3.224-5.584,7.206-5.584
	C83.853,153.499,87.077,156,87.077,159.083z"/>
<path fill="#84796A" d="M134.741,162.719c0.112,3.449-20.248,4.112-20.359,0.665c-0.112-3.446,4.353-6.395,9.978-6.578
	C129.98,156.622,134.63,159.271,134.741,162.719z"/>
<path fill="#BDAB9A" d="M57.867,152.026c0,3.084-14.408,3.084-14.408,0c0-3.082,3.224-5.584,7.207-5.584
	C54.643,146.442,57.867,148.944,57.867,152.026z"/>
<path fill="#AA9C88" d="M121.521,166.47c0,3.979-14.41,3.979-14.41,0c0-3.979,3.227-7.206,7.207-7.206
	C118.296,159.264,121.521,162.491,121.521,166.47z"/>
<path fill="#AA9C88" d="M103.13,165.132c0,3.979-14.409,3.979-14.409,0c0-3.977,3.224-7.206,7.207-7.206
	C99.905,157.926,103.13,161.155,103.13,165.132z"/>
<path fill="#AA9C88" d="M83.939,164.664c0,3.45-20.374,3.45-20.374,0s4.561-6.249,10.188-6.249
	C79.379,158.415,83.939,161.214,83.939,164.664z"/>
<path fill="#84796A" d="M110.799,170.229c0,3.978-14.41,3.978-14.41,0c0-3.979,3.226-7.207,7.207-7.207
	C107.572,163.021,110.799,166.249,110.799,170.229z"/>
<path fill="#BDAB9A" d="M94.281,170.229c0,3.979-14.409,3.979-14.409,0c0-3.979,3.225-7.207,7.207-7.207
	C91.058,163.021,94.281,166.249,94.281,170.229z"/>
<path fill="#AA9C88" d="M66.548,158.814c0,3.451-20.374,3.451-20.374,0c0-3.448,4.561-6.249,10.188-6.249
	C61.987,152.566,66.548,155.366,66.548,158.814z"/>
<path fill="#BDAB9A" d="M69.661,165.132c0,3.979-18.998,3.979-18.998,0c0-3.977,4.251-7.205,9.5-7.205
	C65.409,157.927,69.661,161.155,69.661,165.132z"/>
<path fill="#84796A" d="M78.302,170.229c0,3.979-14.409,3.979-14.409,0s3.226-7.207,7.206-7.207
	C75.078,163.021,78.302,166.249,78.302,170.229z"/>
<path fill="#84796A" d="M166.835,155.546c0.144,4.41-17.545,4.986-17.688,0.577c-0.146-4.407,3.696-8.115,8.584-8.276
	C162.616,147.688,166.688,151.138,166.835,155.546z"/>
<path fill="#AA9C88" d="M45.639,162.309c0,3.449-13.895,3.449-13.895,0s3.11-6.249,6.949-6.249
	C42.529,156.06,45.639,158.857,45.639,162.309z"/>
<path fill="#84796A" d="M59.322,167.773c0,3.978-14.408,3.978-14.408,0c0-3.979,3.225-7.207,7.206-7.207
	C56.1,160.566,59.322,163.795,59.322,167.773z"/>
<path fill="#A09280" d="M155.105,159.277c0,3.451-11.932,3.451-11.932,0c0-3.448,2.672-6.25,5.967-6.25
	S155.105,155.829,155.105,159.277z"/>
<path fill="#BDAB9A" d="M147.782,163.331c0,3.979-14.408,3.979-14.408,0s3.226-7.205,7.207-7.205
	C144.561,156.126,147.782,159.354,147.782,163.331z"/>
<path fill="#E54E36" d="M16.354,156.126c0.355-2.934,25.053,21.692,85.809,15.26c60.754-6.436,77.047-23.009,78.291-21.236
	c3.346,4.764,4.153,35.386,0,39.903c-4.152,4.516-29.912,13.896-82.049,16.741c-47.281,2.579-71.716-4.371-74.534-10.31
	C20.212,188.777,15.681,161.698,16.354,156.126z"/>
<g>
	<path fill="#F16141" d="M26.354,175.352c0,0,0.503,0.322,1.479,0.858c0.978,0.534,2.436,1.272,4.324,2.133
		c0.942,0.437,1.989,0.904,3.156,1.354c0.579,0.232,1.182,0.475,1.807,0.727c0.636,0.225,1.294,0.457,1.975,0.697
		c1.35,0.505,2.818,0.953,4.368,1.412c1.537,0.498,3.182,0.921,4.896,1.365c1.702,0.487,3.519,0.826,5.383,1.228
		c1.856,0.437,3.813,0.712,5.81,1.054c1.99,0.379,4.069,0.555,6.18,0.807c2.108,0.281,4.279,0.402,6.483,0.55
		c1.103,0.063,2.211,0.172,3.333,0.203c1.122,0.016,2.252,0.03,3.389,0.047c1.136,0.017,2.279,0.032,3.428,0.049
		c1.149-0.005,2.304-0.067,3.463-0.099c4.629-0.047,9.365-0.536,14.004-0.961c4.72-0.604,9.441-1.207,14.088-1.799
		c2.335-0.264,4.604-0.674,6.857-1.029c2.254-0.364,4.479-0.725,6.671-1.079c1.096-0.177,2.182-0.353,3.258-0.526
		c1.077-0.17,2.132-0.416,3.185-0.605c2.101-0.409,4.154-0.811,6.155-1.199c4.015-0.727,7.755-1.651,11.231-2.422
		c3.483-0.748,6.628-1.614,9.438-2.312c2.82-0.674,5.22-1.451,7.226-2.014c2-0.574,3.547-1.1,4.617-1.422
		c1.058-0.356,1.621-0.547,1.621-0.547s-0.544,0.242-1.562,0.699c-1.037,0.408-2.521,1.125-4.487,1.821
		c-1.962,0.703-4.317,1.656-7.091,2.53c-2.762,0.906-5.863,2.004-9.326,2.909c-3.447,0.96-7.17,2.084-11.184,2.942
		c-4.004,0.896-8.188,2.022-12.619,2.746c-2.206,0.407-4.448,0.82-6.719,1.24c-2.271,0.422-4.571,0.871-6.895,1.139
		c-4.643,0.627-9.359,1.264-14.075,1.899c-4.84,0.413-9.583,0.862-14.33,0.883c-1.182,0.021-2.359,0.081-3.531,0.065
		c-1.171-0.043-2.337-0.084-3.496-0.125c-1.158-0.043-2.309-0.084-3.452-0.125c-1.142-0.059-2.272-0.191-3.395-0.282
		c-2.243-0.207-4.454-0.354-6.593-0.733c-2.143-0.336-4.247-0.594-6.263-1.054c-2.02-0.428-4-0.761-5.868-1.303
		c-1.875-0.505-3.698-0.94-5.403-1.524c-1.714-0.548-3.366-1.037-4.888-1.654c-1.535-0.574-2.984-1.133-4.314-1.739
		c-0.669-0.29-1.316-0.571-1.941-0.845c-0.613-0.297-1.204-0.584-1.772-0.859c-1.142-0.536-2.163-1.084-3.08-1.588
		c-1.847-0.981-3.215-1.899-4.147-2.516C26.821,175.719,26.354,175.352,26.354,175.352z"/>
</g>
</svg>
