<?xml version="1.0" encoding="utf-8"?>
<!-- Generator: Adobe Illustrator 16.0.0, SVG Export Plug-In . SVG Version: 6.00 Build 0)  -->
<!DOCTYPE svg PUBLIC "-//W3C//DTD SVG 1.1//EN" "http://www.w3.org/Graphics/SVG/1.1/DTD/svg11.dtd">
<svg version="1.1" id="Layer_1" xmlns="http://www.w3.org/2000/svg" xmlns:xlink="http://www.w3.org/1999/xlink" x="0px" y="0px"
	 width="300px" height="120px" viewBox="0 0 300 120" enable-background="new 0 0 300 120" xml:space="preserve">
<g>
	<rect x="45.296" y="82.718" fill="#748E50" width="2.596" height="0.26"/>
	<path fill="none" stroke="#95BA6D" stroke-width="2" stroke-linejoin="round" d="M173.875,110.514"/>
	<path fill="none" stroke="#95BA6D" stroke-width="2" stroke-linejoin="round" d="M163.334,118.077"/>
	<path fill="none" stroke="#95BA6D" stroke-width="2" stroke-linejoin="round" d="M163.439,110.171"/>
	<path fill="none" stroke="#95BA6D" stroke-width="2" stroke-linejoin="round" d="M174.124,115.728"/>
	<g opacity="0.3">
		<polygon fill="#748E50" points="0.614,113.813 0.614,98.645 9.959,98.645 9.959,77.029 21.641,77.029 21.641,84.816 
			41.372,84.816 41.372,67.033 51.147,67.033 51.147,72.15 63.957,72.15 63.957,56.443 71.569,56.443 71.569,38.402 84.202,38.402 
			84.202,45.672 105.229,45.672 105.229,24.903 125.737,24.903 125.737,69.767 135.601,69.767 135.601,50.604 145.741,50.604 
			145.741,33.21 156.109,33.21 156.109,11.638 183.366,11.638 183.366,47.229 205.295,47.229 205.295,37.365 216.422,37.365 
			216.422,60.62 221.467,60.848 221.526,87.908 244.225,87.908 244.225,85.238 258.215,85.238 258.215,82.59 272.13,82.59 
			272.13,93.252 279.527,93.252 279.527,105.584 299.575,105.584 299.575,113.318 		"/>
		<path fill="#748E50" d="M0.614,114.333c-0.138,0-0.27-0.055-0.367-0.15c-0.098-0.098-0.152-0.231-0.152-0.369V98.645
			c0-0.285,0.232-0.52,0.52-0.52H9.44V77.029c0-0.288,0.232-0.52,0.52-0.52h11.681c0.286,0,0.52,0.231,0.52,0.52v7.268h18.692
			V67.033c0-0.285,0.232-0.52,0.52-0.52h9.775c0.287,0,0.52,0.234,0.52,0.52v4.598h11.77V56.443c0-0.286,0.232-0.518,0.52-0.518
			h7.093V38.402c0-0.286,0.232-0.518,0.52-0.518h12.633c0.287,0,0.52,0.231,0.52,0.518v6.75h19.989V24.903
			c0-0.286,0.232-0.52,0.52-0.52h20.508c0.286,0,0.519,0.233,0.519,0.52v44.344h8.827V50.604c0-0.288,0.232-0.52,0.519-0.52h9.62
			V33.21c0-0.286,0.233-0.52,0.52-0.52h9.849V11.638c0-0.286,0.233-0.518,0.52-0.518h27.257c0.286,0,0.52,0.231,0.52,0.518v35.071
			h20.89v-9.344c0-0.288,0.231-0.52,0.52-0.52h11.127c0.286,0,0.52,0.231,0.52,0.52v22.76l4.548,0.205
			c0.278,0.012,0.497,0.239,0.497,0.518l0.058,26.541h21.661v-2.15c0-0.286,0.233-0.52,0.52-0.52h13.471V82.59
			c0-0.286,0.233-0.518,0.52-0.518h13.915c0.288,0,0.52,0.231,0.52,0.518v10.145h6.878c0.288,0,0.52,0.231,0.52,0.518v11.812h19.528
			c0.286,0,0.52,0.233,0.52,0.52v7.734c0,0.286-0.233,0.518-0.52,0.52L0.614,114.333C0.614,114.333,0.614,114.333,0.614,114.333z
			 M1.133,99.164v14.13l297.923-0.495v-6.695h-19.528c-0.286,0-0.518-0.233-0.518-0.52V93.771h-6.88c-0.286,0-0.52-0.231-0.52-0.52
			V83.109h-12.876v2.129c0,0.286-0.233,0.52-0.52,0.52h-13.471v2.15c0,0.286-0.233,0.518-0.52,0.518h-22.698
			c-0.286,0-0.52-0.231-0.52-0.518l-0.059-26.563l-4.55-0.205c-0.278-0.013-0.496-0.241-0.496-0.52V37.885h-10.09v9.344
			c0,0.286-0.231,0.52-0.518,0.52h-21.929c-0.286,0-0.52-0.233-0.52-0.52V12.158h-26.218V33.21c0,0.288-0.233,0.52-0.52,0.52h-9.849
			v16.874c0,0.286-0.232,0.52-0.52,0.52h-9.62v18.643c0,0.286-0.232,0.52-0.52,0.52h-9.864c-0.287,0-0.52-0.233-0.52-0.52V25.423
			h-19.469v20.249c0,0.286-0.232,0.518-0.52,0.518H84.202c-0.286,0-0.519-0.232-0.519-0.518v-6.75H72.087v17.521
			c0,0.288-0.232,0.52-0.519,0.52h-7.094V72.15c0,0.286-0.232,0.52-0.519,0.52H51.147c-0.287,0-0.52-0.233-0.52-0.52v-4.598h-8.737
			v17.264c0,0.286-0.232,0.518-0.519,0.518H21.641c-0.287,0-0.52-0.231-0.52-0.518v-7.27H10.478v21.098
			c0,0.287-0.232,0.52-0.519,0.52H1.133z"/>
	</g>
	<path fill="none" stroke="#95BA6D" stroke-width="2" stroke-linejoin="round" d="M171.381,72.098"/>
	<path fill="none" stroke="#95BA6D" stroke-width="2" stroke-linejoin="round" d="M209.409,69.75"/>
	<g>
		<polygon fill="#95BA6D" points="157.021,52.108 157.021,50.421 159.223,49.382 169,49.382 171.771,53.266 171.771,57.787 
			172.806,57.787 172.806,94.145 154.527,94.145 154.527,56.731 157.019,56.991 		"/>
		<path fill="#748E50" d="M172.806,94.662h-18.278c-0.286,0-0.52-0.231-0.52-0.518V56.731c0-0.147,0.062-0.288,0.174-0.386
			c0.109-0.098,0.254-0.145,0.398-0.13l1.921,0.2c0-1.292,0-4.307,0-4.307v-1.687c0-0.202,0.114-0.384,0.297-0.471l2.204-1.037
			c0.07-0.034,0.146-0.051,0.221-0.051H169c0.169,0,0.327,0.081,0.424,0.218l2.771,3.882c0.062,0.088,0.096,0.194,0.096,0.303v4.002
			h0.516c0.288,0,0.52,0.231,0.52,0.52v36.357C173.325,94.431,173.094,94.662,172.806,94.662z M155.047,93.625h17.241v-35.32h-0.518
			c-0.286,0-0.518-0.231-0.518-0.518v-4.355l-2.519-3.53h-9.396l-1.801,0.849v6.029c0,0.218,0,0.73-0.52,0.73
			c-0.018,0-0.036-0.002-0.055-0.004l-1.917-0.2V93.625z"/>
	</g>
	<g>
		<polyline fill="#95BA6D" points="157.103,53.407 168.006,53.407 168.006,63.79 169.564,63.79 169.564,65.996 171.121,65.996 
			171.121,68.072 172.418,68.072 		"/>
		<path fill="#748E50" d="M172.418,68.593h-1.297c-0.288,0-0.518-0.232-0.518-0.521v-1.557h-1.039c-0.286,0-0.52-0.233-0.52-0.52
			V64.31h-1.039c-0.286,0-0.52-0.233-0.52-0.52v-9.864h-10.384v-1.039h10.903c0.286,0,0.52,0.232,0.52,0.52v9.864h1.039
			c0.286,0,0.52,0.231,0.52,0.52v1.687h1.037c0.288,0,0.52,0.233,0.52,0.52v1.557h0.777V68.593z"/>
	</g>
	<path fill="#95BA6D" stroke="#748E50" stroke-width="4" stroke-linejoin="round" d="M157.579,55.743"/>
	<g>
		<polygon fill="#748E50" points="154.527,56.347 163.852,56.347 163.809,71.037 167.445,71.037 167.445,86.103 169.175,86.103 
			169.175,94.145 154.527,94.145 		"/>
		<path fill="#748E50" d="M169.175,94.662h-14.647c-0.286,0-0.52-0.231-0.52-0.518V56.347c0-0.286,0.233-0.518,0.52-0.518h9.324
			c0.137,0,0.269,0.055,0.367,0.152c0.098,0.098,0.154,0.23,0.152,0.367l-0.04,14.168h3.114c0.286,0,0.518,0.232,0.518,0.52v14.546
			h1.212c0.286,0,0.518,0.231,0.518,0.52v8.042C169.692,94.431,169.461,94.662,169.175,94.662z M155.047,93.625h13.608v-7.003h-1.21
			c-0.288,0-0.52-0.233-0.52-0.52V71.557h-3.117c-0.136,0-0.27-0.056-0.365-0.154c-0.099-0.096-0.155-0.229-0.153-0.366l0.04-14.169
			h-8.283V93.625z"/>
	</g>
	<g>
		<rect x="154.527" y="93.967" fill="#95BA6D" width="18.312" height="19.493"/>
		<path fill="#748E50" d="M172.84,113.979h-18.312c-0.286,0-0.52-0.233-0.52-0.52V93.967c0-0.286,0.233-0.52,0.52-0.52h18.312
			c0.286,0,0.52,0.233,0.52,0.52v19.493C173.359,113.746,173.126,113.979,172.84,113.979z M155.047,112.94h17.273V94.486h-17.273
			V112.94z"/>
	</g>
	<path fill="#748E50" d="M172.806,100.738h-5.319c-0.286,0-0.52-0.231-0.52-0.52v-0.52h-6.295v0.52c0,0.288-0.231,0.52-0.52,0.52
		h-5.625v-1.039h5.107v-0.518c0-0.288,0.231-0.52,0.518-0.52h7.334c0.286,0,0.52,0.231,0.52,0.52v0.518h4.8V100.738z"/>
	<rect x="154.527" y="96.586" fill="#748E50" width="18.454" height="1.037"/>
	<rect x="170.299" y="91.05" fill="#748E50" width="1.386" height="1.729"/>
	<rect x="170.299" y="88.452" fill="#748E50" width="1.386" height="1.731"/>
	<rect x="170.299" y="85.855" fill="#748E50" width="1.386" height="1.732"/>
	<rect x="169.175" y="83" fill="#748E50" width="2.51" height="1.732"/>
	<rect x="169.175" y="80.406" fill="#748E50" width="2.51" height="1.73"/>
	<rect x="169.175" y="77.809" fill="#748E50" width="2.51" height="1.731"/>
	<rect x="169.175" y="75.213" fill="#748E50" width="2.51" height="1.731"/>
	<rect x="169.175" y="72.617" fill="#748E50" width="2.51" height="1.731"/>
	<rect x="169.175" y="70.021" fill="#748E50" width="2.51" height="1.731"/>
	<rect x="164.934" y="67.425" fill="#748E50" width="2.512" height="1.732"/>
	<rect x="164.934" y="67.425" fill="#748E50" width="2.512" height="1.732"/>
	<rect x="164.934" y="64.916" fill="#748E50" width="1.386" height="1.731"/>
	<rect x="164.934" y="62.32" fill="#748E50" width="1.386" height="1.731"/>
	<rect x="164.934" y="59.725" fill="#748E50" width="1.386" height="1.731"/>
	<rect x="164.934" y="57.129" fill="#748E50" width="1.386" height="1.729"/>
	<rect x="168.049" y="67.425" fill="#748E50" width="1.384" height="1.732"/>
	<rect x="166.752" y="64.916" fill="#748E50" width="1.384" height="1.731"/>
	<rect x="155.026" y="90.961" fill="#95BA6D" width="1.384" height="1.732"/>
	<rect x="155.026" y="88.365" fill="#95BA6D" width="1.384" height="1.729"/>
	<rect x="155.026" y="85.77" fill="#95BA6D" width="1.384" height="1.731"/>
	<rect x="155.026" y="83.174" fill="#95BA6D" width="1.384" height="1.729"/>
	<rect x="155.026" y="80.578" fill="#95BA6D" width="1.384" height="1.729"/>
	<rect x="155.026" y="77.981" fill="#95BA6D" width="1.384" height="1.73"/>
	<rect x="155.026" y="75.386" fill="#95BA6D" width="1.384" height="1.73"/>
	<rect x="155.026" y="72.788" fill="#95BA6D" width="1.384" height="1.731"/>
	<rect x="155.026" y="70.194" fill="#95BA6D" width="1.384" height="1.729"/>
	<rect x="155.026" y="67.339" fill="#95BA6D" width="1.384" height="1.729"/>
	<rect x="155.026" y="65.003" fill="#95BA6D" width="1.384" height="1.729"/>
	<rect x="155.026" y="62.405" fill="#95BA6D" width="1.384" height="1.731"/>
	<rect x="155.026" y="59.811" fill="#95BA6D" width="1.384" height="1.73"/>
	<rect x="155.026" y="57.213" fill="#95BA6D" width="1.384" height="1.732"/>
	<rect x="161.451" y="90.961" fill="#95BA6D" width="1.386" height="1.732"/>
	<rect x="167.618" y="90.961" fill="#95BA6D" width="1.384" height="1.732"/>
	<rect x="167.618" y="88.365" fill="#95BA6D" width="1.384" height="1.729"/>
	<rect x="167.618" y="86.635" fill="#95BA6D" width="1.384" height="0.866"/>
	<rect x="157.683" y="90.961" fill="#95BA6D" width="2.492" height="1.732"/>
	<rect x="161.451" y="88.365" fill="#95BA6D" width="1.386" height="1.729"/>
	<rect x="157.683" y="88.365" fill="#95BA6D" width="2.492" height="1.729"/>
	<rect x="161.451" y="85.77" fill="#95BA6D" width="1.386" height="1.731"/>
	<rect x="157.683" y="85.77" fill="#95BA6D" width="2.492" height="1.731"/>
	<rect x="161.451" y="83.174" fill="#95BA6D" width="1.386" height="1.729"/>
	<rect x="157.683" y="83.174" fill="#95BA6D" width="2.492" height="1.729"/>
	<rect x="161.451" y="80.578" fill="#95BA6D" width="1.386" height="1.729"/>
	<rect x="157.683" y="80.578" fill="#95BA6D" width="2.492" height="1.729"/>
	<rect x="161.451" y="77.981" fill="#95BA6D" width="1.386" height="1.73"/>
	<rect x="157.683" y="77.981" fill="#95BA6D" width="2.492" height="1.73"/>
	<rect x="161.451" y="75.386" fill="#95BA6D" width="1.386" height="1.73"/>
	<rect x="157.683" y="75.386" fill="#95BA6D" width="2.492" height="1.73"/>
	<rect x="161.451" y="72.788" fill="#95BA6D" width="1.386" height="1.731"/>
	<rect x="157.683" y="72.788" fill="#95BA6D" width="2.492" height="1.731"/>
	<rect x="163.912" y="90.961" fill="#95BA6D" width="2.494" height="1.732"/>
	<rect x="163.912" y="88.365" fill="#95BA6D" width="2.494" height="1.729"/>
	<rect x="163.912" y="85.77" fill="#95BA6D" width="2.494" height="1.731"/>
	<rect x="163.912" y="83.174" fill="#95BA6D" width="2.494" height="1.729"/>
	<rect x="163.912" y="80.578" fill="#95BA6D" width="2.494" height="1.729"/>
	<rect x="163.912" y="77.981" fill="#95BA6D" width="2.494" height="1.73"/>
	<rect x="163.912" y="75.386" fill="#95BA6D" width="2.494" height="1.73"/>
	<rect x="163.912" y="72.788" fill="#95BA6D" width="2.494" height="1.731"/>
	<rect x="161.451" y="70.194" fill="#95BA6D" width="1.386" height="1.729"/>
	<rect x="157.683" y="70.194" fill="#95BA6D" width="2.492" height="1.729"/>
	<rect x="161.451" y="67.597" fill="#95BA6D" width="1.386" height="1.731"/>
	<rect x="157.683" y="67.597" fill="#95BA6D" width="2.492" height="1.731"/>
	<rect x="161.451" y="65.003" fill="#95BA6D" width="1.386" height="1.729"/>
	<rect x="161.451" y="62.405" fill="#95BA6D" width="1.386" height="1.731"/>
	<rect x="157.683" y="65.003" fill="#95BA6D" width="2.492" height="1.729"/>
	<rect x="157.683" y="62.405" fill="#95BA6D" width="2.492" height="1.731"/>
	<rect x="161.451" y="59.811" fill="#95BA6D" width="1.386" height="1.73"/>
	<rect x="157.683" y="59.811" fill="#95BA6D" width="2.492" height="1.73"/>
	<rect x="161.451" y="57.213" fill="#95BA6D" width="1.386" height="1.732"/>
	<rect x="157.683" y="57.213" fill="#95BA6D" width="2.492" height="1.732"/>
	<rect x="161.019" y="54.357" fill="#748E50" width="1.818" height="1.99"/>
	<rect x="158.279" y="54.357" fill="#748E50" width="1.816" height="1.99"/>
	<rect x="161.191" y="100.567" fill="#748E50" width="2.045" height="1.729"/>
	<rect x="164.307" y="100.567" fill="#748E50" width="2.043" height="1.729"/>
	<rect x="161.191" y="103.163" fill="#748E50" width="2.045" height="1.729"/>
	<rect x="164.307" y="103.163" fill="#748E50" width="2.043" height="1.729"/>
	<rect x="161.191" y="105.759" fill="#748E50" width="2.045" height="1.731"/>
	<rect x="158.338" y="101.866" fill="#748E50" width="2.042" height="1.729"/>
	<rect x="158.338" y="104.46" fill="#748E50" width="2.042" height="1.731"/>
	<rect x="164.307" y="105.759" fill="#748E50" width="2.043" height="1.731"/>
	<rect x="167.162" y="101.866" fill="#748E50" width="2.045" height="1.729"/>
	<rect x="167.162" y="104.46" fill="#748E50" width="2.045" height="1.731"/>
	<line fill="#748E50" x1="161.191" y1="102.297" x2="161.191" y2="100.567"/>
	<line fill="#748E50" x1="166.35" y1="102.297" x2="164.307" y2="102.297"/>
	<rect x="157.039" y="108.635" fill="#748E50" width="6.197" height="5.105"/>
	<rect x="164.307" y="108.635" fill="#748E50" width="6.197" height="5.105"/>
	<rect x="156.073" y="101.82" fill="#748E50" width="1.094" height="1.893"/>
	<rect x="156.073" y="104.676" fill="#748E50" width="1.094" height="1.893"/>
	<rect x="170.352" y="101.82" fill="#748E50" width="1.096" height="1.893"/>
	<rect x="170.352" y="104.676" fill="#748E50" width="1.096" height="1.893"/>
	<g>
		<polygon fill="#95BA6D" points="200.133,113.371 179.95,113.371 179.95,39.888 184.385,38.329 195.028,38.329 200.133,39.888 		
			"/>
		<path fill="#748E50" d="M200.133,113.891H179.95c-0.288,0-0.52-0.233-0.52-0.52V39.888c0-0.223,0.139-0.418,0.348-0.492
			l4.436-1.557c0.054-0.019,0.112-0.03,0.171-0.03h10.644c0.051,0,0.104,0.008,0.152,0.023l5.104,1.559
			c0.217,0.066,0.365,0.267,0.365,0.497v73.483C200.65,113.657,200.419,113.891,200.133,113.891z M180.47,112.852h19.144v-72.58
			l-4.662-1.423h-10.478l-4.004,1.406V112.852z"/>
	</g>
	<g>
		<polyline fill="#95BA6D" points="179.971,45.218 182.609,45.218 182.609,43.012 185.207,43.012 185.207,40.934 187.673,40.934 
			187.673,38.718 187.673,38.718 187.673,36.651 189.966,34.056 192.172,36.521 192.172,38.718 192.172,40.934 194.639,40.934 
			194.639,43.012 197.234,43.012 197.234,45.218 199.873,45.218 		"/>
		<path fill="#748E50" d="M199.873,45.738h-2.639c-0.286,0-0.518-0.233-0.518-0.52V43.53h-2.078c-0.286,0-0.52-0.231-0.52-0.518
			v-1.559h-1.947c-0.286,0-0.52-0.231-0.52-0.52v-4.215l-1.685-1.882l-1.775,2.01v4.087c0,0.288-0.233,0.52-0.52,0.52h-1.948v1.559
			c0,0.286-0.231,0.518-0.518,0.518h-2.078v1.688c0,0.286-0.233,0.52-0.52,0.52h-2.639v-1.039h2.119v-1.687
			c0-0.288,0.233-0.52,0.52-0.52h2.078v-1.559c0-0.286,0.231-0.52,0.52-0.52h1.946v-3.763c0-0.126,0.046-0.248,0.129-0.344
			l2.294-2.596c0.098-0.111,0.239-0.175,0.388-0.175c0.002,0,0.002,0,0.002,0c0.147,0,0.288,0.064,0.388,0.173l2.206,2.466
			c0.083,0.096,0.132,0.218,0.132,0.346v3.893h1.947c0.286,0,0.52,0.233,0.52,0.52v1.559h2.076c0.288,0,0.52,0.231,0.52,0.52v1.687
			h2.119V45.738z"/>
	</g>
	<g>
		<line fill="#95BA6D" x1="187.673" y1="40.934" x2="187.673" y2="47.122"/>
		<rect x="187.153" y="40.934" fill="#748E50" width="1.039" height="6.188"/>
	</g>
	<g>
		<line fill="#95BA6D" x1="192.172" y1="40.934" x2="192.172" y2="46.905"/>
		<rect x="191.652" y="40.934" fill="#748E50" width="1.039" height="5.971"/>
	</g>
	<path fill="#748E50" d="M184.038,113.371h-1.037V82.342c0-0.288,0.231-0.52,0.52-0.52h3.113v-34.96c0-0.286,0.233-0.518,0.52-0.518
		h5.538c0.286,0,0.52,0.231,0.52,0.518V57.68h6.402v1.037h-6.922c-0.286,0-0.52-0.23-0.52-0.518V47.381h-4.499v34.96
		c0,0.286-0.233,0.518-0.52,0.518h-3.115V113.371z"/>
	<polygon fill="#748E50" points="187.153,51.018 184.558,51.018 184.558,71.601 183.001,71.601 183.001,72.822 181.529,72.822 
		181.529,74.206 179.95,74.206 179.95,113.318 183.865,113.318 183.865,82.34 187.153,82.34 	"/>
	<path fill="#95BA6D" d="M187.933,52.575h-1.342c-0.143,0-0.26-0.117-0.26-0.26s0.117-0.26,0.26-0.26h1.342
		c0.144,0,0.26,0.117,0.26,0.26S188.076,52.575,187.933,52.575z"/>
	<path fill="#95BA6D" d="M187.933,52.575h-1.342c-0.143,0-0.26-0.117-0.26-0.26s0.117-0.26,0.26-0.26h1.342
		c0.144,0,0.26,0.117,0.26,0.26S188.076,52.575,187.933,52.575z"/>
	<path fill="#95BA6D" d="M187.933,54.651h-1.342c-0.143,0-0.26-0.115-0.26-0.26c0-0.143,0.117-0.26,0.26-0.26h1.342
		c0.144,0,0.26,0.117,0.26,0.26C188.192,54.536,188.076,54.651,187.933,54.651z"/>
	<path fill="#95BA6D" d="M187.933,56.728h-1.342c-0.143,0-0.26-0.115-0.26-0.258c0-0.145,0.117-0.26,0.26-0.26h1.342
		c0.144,0,0.26,0.115,0.26,0.26C188.192,56.613,188.076,56.728,187.933,56.728z"/>
	<path fill="#95BA6D" d="M187.933,58.804h-1.342c-0.143,0-0.26-0.114-0.26-0.26c0-0.142,0.117-0.258,0.26-0.258h1.342
		c0.144,0,0.26,0.116,0.26,0.258C188.192,58.689,188.076,58.804,187.933,58.804z"/>
	<path fill="#95BA6D" d="M187.933,60.882h-1.342c-0.143,0-0.26-0.116-0.26-0.26c0-0.146,0.117-0.26,0.26-0.26h1.342
		c0.144,0,0.26,0.114,0.26,0.26C188.192,60.766,188.076,60.882,187.933,60.882z"/>
	<path fill="#95BA6D" d="M187.933,62.958h-1.342c-0.143,0-0.26-0.116-0.26-0.26c0-0.143,0.117-0.26,0.26-0.26h1.342
		c0.144,0,0.26,0.117,0.26,0.26C188.192,62.842,188.076,62.958,187.933,62.958z"/>
	<path fill="#95BA6D" d="M187.933,65.034h-1.342c-0.143,0-0.26-0.114-0.26-0.26c0-0.143,0.117-0.26,0.26-0.26h1.342
		c0.144,0,0.26,0.117,0.26,0.26C188.192,64.92,188.076,65.034,187.933,65.034z"/>
	<path fill="#95BA6D" d="M187.933,67.112h-1.342c-0.143,0-0.26-0.116-0.26-0.26c0-0.145,0.117-0.26,0.26-0.26h1.342
		c0.144,0,0.26,0.115,0.26,0.26C188.192,66.996,188.076,67.112,187.933,67.112z"/>
	<path fill="#95BA6D" d="M187.933,69.189h-1.342c-0.143,0-0.26-0.117-0.26-0.26c0-0.144,0.117-0.26,0.26-0.26h1.342
		c0.144,0,0.26,0.116,0.26,0.26C188.192,69.072,188.076,69.189,187.933,69.189z"/>
	<path fill="#95BA6D" d="M187.933,71.266h-1.342c-0.143,0-0.26-0.117-0.26-0.26c0-0.144,0.117-0.26,0.26-0.26h1.342
		c0.144,0,0.26,0.116,0.26,0.26C188.192,71.148,188.076,71.266,187.933,71.266z"/>
	<path fill="#95BA6D" d="M187.933,73.342h-1.342c-0.143,0-0.26-0.117-0.26-0.26c0-0.144,0.117-0.258,0.26-0.258h1.342
		c0.144,0,0.26,0.114,0.26,0.258C188.192,73.225,188.076,73.342,187.933,73.342z"/>
	<path fill="#95BA6D" d="M187.933,75.418h-1.342c-0.143,0-0.26-0.115-0.26-0.26c0-0.143,0.117-0.26,0.26-0.26h1.342
		c0.144,0,0.26,0.117,0.26,0.26C188.192,75.303,188.076,75.418,187.933,75.418z"/>
	<path fill="#95BA6D" d="M187.933,77.496h-1.342c-0.143,0-0.26-0.117-0.26-0.26c0-0.145,0.117-0.26,0.26-0.26h1.342
		c0.144,0,0.26,0.115,0.26,0.26C188.192,77.379,188.076,77.496,187.933,77.496z"/>
	<path fill="#95BA6D" d="M187.933,79.572h-1.342c-0.143,0-0.26-0.116-0.26-0.26c0-0.143,0.117-0.26,0.26-0.26h1.342
		c0.144,0,0.26,0.117,0.26,0.26C188.192,79.456,188.076,79.572,187.933,79.572z"/>
	<path fill="#95BA6D" d="M187.933,81.648h-1.342c-0.143,0-0.26-0.114-0.26-0.26c0-0.143,0.117-0.26,0.26-0.26h1.342
		c0.144,0,0.26,0.117,0.26,0.26C188.192,81.534,188.076,81.648,187.933,81.648z"/>
	<path fill="#95BA6D" d="M200.696,61.661h-1.343c-0.143,0-0.258-0.116-0.258-0.26c0-0.145,0.115-0.26,0.258-0.26h1.343
		c0.143,0,0.26,0.115,0.26,0.26C200.956,61.545,200.839,61.661,200.696,61.661z"/>
	<path fill="#95BA6D" d="M200.696,63.737h-1.343c-0.143,0-0.258-0.116-0.258-0.26c0-0.143,0.115-0.26,0.258-0.26h1.343
		c0.143,0,0.26,0.117,0.26,0.26C200.956,63.621,200.839,63.737,200.696,63.737z"/>
	<path fill="#95BA6D" d="M200.696,65.813h-1.343c-0.143,0-0.258-0.116-0.258-0.26c0-0.143,0.115-0.26,0.258-0.26h1.343
		c0.143,0,0.26,0.117,0.26,0.26C200.956,65.697,200.839,65.813,200.696,65.813z"/>
	<path fill="#95BA6D" d="M200.696,67.891h-1.343c-0.143,0-0.258-0.117-0.258-0.26c0-0.144,0.115-0.259,0.258-0.259h1.343
		c0.143,0,0.26,0.115,0.26,0.259C200.956,67.773,200.839,67.891,200.696,67.891z"/>
	<path fill="#95BA6D" d="M200.696,69.967h-1.343c-0.143,0-0.258-0.115-0.258-0.26c0-0.144,0.115-0.26,0.258-0.26h1.343
		c0.143,0,0.26,0.116,0.26,0.26C200.956,69.852,200.839,69.967,200.696,69.967z"/>
	<path fill="#95BA6D" d="M200.696,72.045h-1.343c-0.143,0-0.258-0.117-0.258-0.26c0-0.146,0.115-0.26,0.258-0.26h1.343
		c0.143,0,0.26,0.114,0.26,0.26C200.956,71.928,200.839,72.045,200.696,72.045z"/>
	<path fill="#95BA6D" d="M200.696,74.121h-1.343c-0.143,0-0.258-0.117-0.258-0.26c0-0.144,0.115-0.26,0.258-0.26h1.343
		c0.143,0,0.26,0.116,0.26,0.26C200.956,74.004,200.839,74.121,200.696,74.121z"/>
	<path fill="#95BA6D" d="M200.696,76.197h-1.343c-0.143,0-0.258-0.115-0.258-0.26c0-0.143,0.115-0.26,0.258-0.26h1.343
		c0.143,0,0.26,0.117,0.26,0.26C200.956,76.082,200.839,76.197,200.696,76.197z"/>
	<path fill="#95BA6D" d="M200.696,78.273h-1.343c-0.143,0-0.258-0.116-0.258-0.258c0-0.145,0.115-0.26,0.258-0.26h1.343
		c0.143,0,0.26,0.115,0.26,0.26C200.956,78.157,200.839,78.273,200.696,78.273z"/>
	<path fill="#95BA6D" d="M200.696,80.35h-1.343c-0.143,0-0.258-0.114-0.258-0.258c0-0.145,0.115-0.26,0.258-0.26h1.343
		c0.143,0,0.26,0.115,0.26,0.26C200.956,80.235,200.839,80.35,200.696,80.35z"/>
	<path fill="#95BA6D" d="M200.696,82.428h-1.343c-0.143,0-0.258-0.116-0.258-0.26c0-0.145,0.115-0.26,0.258-0.26h1.343
		c0.143,0,0.26,0.115,0.26,0.26C200.956,82.312,200.839,82.428,200.696,82.428z"/>
	<path fill="#95BA6D" d="M200.696,84.504h-1.343c-0.143,0-0.258-0.116-0.258-0.26c0-0.143,0.115-0.26,0.258-0.26h1.343
		c0.143,0,0.26,0.117,0.26,0.26C200.956,84.388,200.839,84.504,200.696,84.504z"/>
	<path fill="#95BA6D" d="M200.696,86.581h-1.343c-0.143,0-0.258-0.115-0.258-0.26c0-0.144,0.115-0.26,0.258-0.26h1.343
		c0.143,0,0.26,0.116,0.26,0.26C200.956,86.466,200.839,86.581,200.696,86.581z"/>
	<path fill="#95BA6D" d="M200.696,88.659h-1.343c-0.143,0-0.258-0.119-0.258-0.26c0-0.146,0.115-0.26,0.258-0.26h1.343
		c0.143,0,0.26,0.114,0.26,0.26C200.956,88.54,200.839,88.659,200.696,88.659z"/>
	<path fill="#95BA6D" d="M200.696,90.735h-1.343c-0.143,0-0.258-0.117-0.258-0.26c0-0.144,0.115-0.26,0.258-0.26h1.343
		c0.143,0,0.26,0.116,0.26,0.26C200.956,90.618,200.839,90.735,200.696,90.735z"/>
	<g>
		<rect x="179.95" y="92.725" fill="#95BA6D" width="25.98" height="20.767"/>
		<path fill="#748E50" d="M205.931,114.01h-25.98c-0.288,0-0.52-0.232-0.52-0.519V92.725c0-0.286,0.231-0.518,0.52-0.518h25.98
			c0.288,0,0.518,0.231,0.518,0.518v20.767C206.448,113.777,206.219,114.01,205.931,114.01z M180.47,112.972h24.941V93.244H180.47
			V112.972z"/>
	</g>
	<path fill="#95BA6D" d="M184.45,86.925h-1.342c-0.145,0-0.26-0.114-0.26-0.26c0-0.143,0.115-0.258,0.26-0.258h1.342
		c0.144,0,0.26,0.115,0.26,0.258C184.71,86.811,184.594,86.925,184.45,86.925z"/>
	<path fill="#95BA6D" d="M184.45,89.003h-1.342c-0.145,0-0.26-0.116-0.26-0.26c0-0.143,0.115-0.26,0.26-0.26h1.342
		c0.144,0,0.26,0.117,0.26,0.26C184.71,88.887,184.594,89.003,184.45,89.003z"/>
	<path fill="#95BA6D" d="M184.45,91.08h-1.342c-0.145,0-0.26-0.117-0.26-0.26c0-0.144,0.115-0.26,0.26-0.26h1.342
		c0.144,0,0.26,0.116,0.26,0.26C184.71,90.963,184.594,91.08,184.45,91.08z"/>
	<rect x="189.316" y="49.631" fill="#748E50" width="1.429" height="1.732"/>
	<rect x="189.316" y="51.969" fill="#748E50" width="1.429" height="1.73"/>
	<rect x="189.316" y="54.562" fill="#748E50" width="1.429" height="1.732"/>
	<rect x="189.316" y="57.16" fill="#748E50" width="1.429" height="1.73"/>
	<rect x="189.316" y="59.754" fill="#748E50" width="1.429" height="1.732"/>
	<rect x="189.316" y="62.353" fill="#748E50" width="1.429" height="1.729"/>
	<rect x="189.316" y="64.946" fill="#748E50" width="1.429" height="1.731"/>
	<rect x="189.316" y="67.544" fill="#748E50" width="1.429" height="1.729"/>
	<rect x="189.316" y="70.14" fill="#748E50" width="1.429" height="1.729"/>
	<rect x="189.316" y="72.735" fill="#748E50" width="1.429" height="1.73"/>
	<rect x="189.316" y="75.331" fill="#748E50" width="1.429" height="1.73"/>
	<rect x="189.316" y="77.927" fill="#748E50" width="1.429" height="1.73"/>
	<rect x="189.316" y="80.523" fill="#748E50" width="1.429" height="1.729"/>
	<rect x="185.162" y="84.071" fill="#748E50" width="1.429" height="1.73"/>
	<rect x="185.162" y="86.667" fill="#748E50" width="1.429" height="1.73"/>
	<rect x="196.78" y="84.071" fill="#748E50" width="1.427" height="1.73"/>
	<rect x="196.78" y="86.667" fill="#748E50" width="1.427" height="1.73"/>
	<rect x="196.78" y="89.263" fill="#748E50" width="1.427" height="1.73"/>
	<rect x="185.162" y="89.263" fill="#748E50" width="1.429" height="1.73"/>
	<rect x="192.94" y="59.754" fill="#748E50" width="2.153" height="1.732"/>
	<rect x="196.056" y="59.754" fill="#748E50" width="2.151" height="1.732"/>
	<rect x="192.94" y="62.353" fill="#748E50" width="2.153" height="1.729"/>
	<rect x="196.056" y="62.353" fill="#748E50" width="2.151" height="1.729"/>
	<rect x="192.94" y="64.946" fill="#748E50" width="2.153" height="1.731"/>
	<rect x="196.056" y="64.946" fill="#748E50" width="2.151" height="1.731"/>
	<rect x="192.94" y="67.544" fill="#748E50" width="2.153" height="1.729"/>
	<rect x="196.056" y="67.544" fill="#748E50" width="2.151" height="1.729"/>
	<rect x="192.94" y="70.14" fill="#748E50" width="2.153" height="1.729"/>
	<rect x="196.056" y="70.14" fill="#748E50" width="2.151" height="1.729"/>
	<rect x="192.94" y="72.735" fill="#748E50" width="2.153" height="1.73"/>
	<rect x="196.056" y="72.735" fill="#748E50" width="2.151" height="1.73"/>
	<rect x="192.94" y="75.331" fill="#748E50" width="2.153" height="1.73"/>
	<rect x="196.056" y="75.331" fill="#748E50" width="2.151" height="1.73"/>
	<rect x="192.94" y="77.927" fill="#748E50" width="2.153" height="1.73"/>
	<rect x="196.056" y="77.927" fill="#748E50" width="2.151" height="1.73"/>
	<rect x="192.94" y="77.927" fill="#748E50" width="2.153" height="1.73"/>
	<rect x="196.056" y="77.927" fill="#748E50" width="2.151" height="1.73"/>
	<rect x="192.94" y="80.523" fill="#748E50" width="2.153" height="1.729"/>
	<rect x="196.056" y="80.523" fill="#748E50" width="2.151" height="1.729"/>
	<rect x="192.94" y="80.523" fill="#748E50" width="2.153" height="1.729"/>
	<rect x="196.056" y="80.523" fill="#748E50" width="2.151" height="1.729"/>
	<rect x="188.11" y="84.071" fill="#748E50" width="2.153" height="1.73"/>
	<rect x="191.226" y="84.071" fill="#748E50" width="2.151" height="1.73"/>
	<rect x="188.11" y="86.667" fill="#748E50" width="2.153" height="1.73"/>
	<rect x="191.226" y="86.667" fill="#748E50" width="2.151" height="1.73"/>
	<rect x="188.11" y="89.263" fill="#748E50" width="2.153" height="1.73"/>
	<rect x="191.226" y="89.263" fill="#748E50" width="2.151" height="1.73"/>
	<polygon fill="#748E50" points="205.931,98.694 179.95,98.694 179.95,97.568 191.307,97.568 192.778,96.791 194.276,97.568 
		205.931,97.568 	"/>
	<rect x="181.529" y="99.733" fill="#748E50" width="1.818" height="2.249"/>
	<rect x="184.125" y="99.733" fill="#748E50" width="1.816" height="2.249"/>
	<rect x="186.721" y="99.733" fill="#748E50" width="1.818" height="2.249"/>
	<rect x="189.316" y="99.733" fill="#748E50" width="1.816" height="2.249"/>
	<rect x="191.912" y="99.733" fill="#748E50" width="1.818" height="2.249"/>
	<rect x="194.509" y="99.733" fill="#748E50" width="1.816" height="2.249"/>
	<rect x="197.104" y="99.733" fill="#748E50" width="1.818" height="2.249"/>
	<rect x="199.7" y="99.733" fill="#748E50" width="1.816" height="2.249"/>
	<rect x="202.296" y="99.733" fill="#748E50" width="1.818" height="2.249"/>
	<rect x="181.529" y="102.329" fill="#748E50" width="1.818" height="2.249"/>
	<rect x="184.125" y="102.329" fill="#748E50" width="1.816" height="2.249"/>
	<rect x="186.721" y="102.329" fill="#748E50" width="1.818" height="2.249"/>
	<rect x="189.316" y="102.329" fill="#748E50" width="1.816" height="2.249"/>
	<rect x="191.912" y="102.329" fill="#748E50" width="1.818" height="2.249"/>
	<rect x="194.509" y="102.329" fill="#748E50" width="1.816" height="2.249"/>
	<rect x="197.104" y="102.329" fill="#748E50" width="1.818" height="2.249"/>
	<rect x="199.7" y="102.329" fill="#748E50" width="1.816" height="2.249"/>
	<rect x="202.296" y="102.329" fill="#748E50" width="1.818" height="2.249"/>
	<rect x="181.529" y="104.925" fill="#748E50" width="1.818" height="2.249"/>
	<rect x="184.125" y="104.925" fill="#748E50" width="1.816" height="2.249"/>
	<rect x="186.721" y="104.925" fill="#748E50" width="1.818" height="2.249"/>
	<rect x="189.316" y="104.925" fill="#748E50" width="1.816" height="2.249"/>
	<rect x="191.912" y="104.925" fill="#748E50" width="1.818" height="2.249"/>
	<rect x="194.509" y="104.925" fill="#748E50" width="1.816" height="2.249"/>
	<rect x="197.104" y="104.925" fill="#748E50" width="1.818" height="2.249"/>
	<rect x="199.7" y="104.925" fill="#748E50" width="1.816" height="2.249"/>
	<rect x="202.296" y="104.925" fill="#748E50" width="1.818" height="2.249"/>
	<rect x="181.529" y="107.521" fill="#748E50" width="1.818" height="2.25"/>
	<rect x="184.125" y="107.521" fill="#748E50" width="1.816" height="2.25"/>
	<rect x="186.721" y="107.521" fill="#748E50" width="1.818" height="2.25"/>
	<rect x="189.316" y="107.521" fill="#748E50" width="1.816" height="2.25"/>
	<rect x="191.912" y="107.521" fill="#748E50" width="1.818" height="2.25"/>
	<rect x="194.509" y="107.521" fill="#748E50" width="1.816" height="2.25"/>
	<rect x="197.104" y="107.521" fill="#748E50" width="1.818" height="2.25"/>
	<rect x="199.7" y="107.521" fill="#748E50" width="1.816" height="2.25"/>
	<rect x="202.296" y="107.521" fill="#748E50" width="1.818" height="2.25"/>
	<rect x="181.529" y="110.116" fill="#748E50" width="1.818" height="3.255"/>
	<rect x="184.125" y="110.116" fill="#748E50" width="1.816" height="3.255"/>
	<rect x="186.721" y="110.116" fill="#748E50" width="1.818" height="3.255"/>
	<rect x="189.316" y="110.116" fill="#748E50" width="1.816" height="3.255"/>
	<rect x="191.912" y="110.116" fill="#748E50" width="1.818" height="3.255"/>
	<rect x="194.509" y="110.116" fill="#748E50" width="1.816" height="3.255"/>
	<rect x="197.104" y="110.116" fill="#748E50" width="1.818" height="3.255"/>
	<rect x="199.7" y="110.116" fill="#748E50" width="1.816" height="3.255"/>
	<rect x="202.296" y="110.116" fill="#748E50" width="1.818" height="3.255"/>
	<rect x="179.971" y="94.628" fill="#748E50" width="25.96" height="1.037"/>
	<polygon fill="#748E50" points="134.602,88.73 139.465,87.701 139.347,96.213 130.588,94.368 	"/>
	<rect x="117.773" y="110.158" fill="#748E50" width="30.807" height="3.84"/>
	<g>
		<polygon fill="#95BA6D" points="118.283,92.61 126.358,90.257 134.518,87.805 134.576,91.554 137.064,91.554 139.034,86.867 
			148.786,85.402 148.633,95.543 150.226,110.542 122.726,110.892 116.587,110.013 		"/>
		<path fill="#748E50" d="M122.691,111.411l-0.04-0.005l-6.63-0.949l1.778-18.248l8.414-2.451l8.812-2.648l0.061,3.927h1.633
			l1.947-4.638l10.646-1.601l-0.161,10.721l1.649,15.535L122.691,111.411z M117.151,109.568l5.608,0.804l26.889-0.342l-1.535-14.465
			l0.001-0.032l0.142-9.526l-8.857,1.331l-1.989,4.735h-3.345l-0.056-3.574l-7.501,2.255l-7.742,2.257L117.151,109.568z"/>
	</g>
	<g>
		<polyline fill="#95BA6D" points="122.901,110.862 126.414,104.915 148.467,95.539 		"/>
		<polygon fill="#748E50" points="123.125,110.994 122.677,110.73 126.233,104.71 126.312,104.676 148.366,95.302 148.568,95.778 
			126.594,105.12 		"/>
	</g>
	<g>
		<line fill="#95BA6D" x1="126.358" y1="90.257" x2="126.358" y2="104.88"/>
		<rect x="126.099" y="90.257" fill="#748E50" width="0.52" height="14.623"/>
	</g>
	<polygon fill="#748E50" points="149.395,103.317 140.691,100.804 138.674,102.82 143.377,108.138 149.874,108.138 	"/>
	<g>
		<polygon fill="#95BA6D" points="108.258,48.53 111.453,107.948 112.012,108.213 112.152,113.554 88.097,113.554 88.233,108.014 
			88.802,107.809 91.99,48.53 100.038,37.171 		"/>
		<path fill="#748E50" d="M112.152,114.071H88.097c-0.141,0-0.275-0.057-0.372-0.156c-0.098-0.1-0.15-0.235-0.147-0.376l0.136-5.536
			c0.006-0.215,0.141-0.405,0.344-0.477l0.245-0.089l3.17-58.936c0.005-0.098,0.038-0.192,0.095-0.271l8.047-11.358
			c0.097-0.138,0.253-0.219,0.42-0.221c0.001,0,0.002,0,0.003,0c0.167,0,0.323,0.081,0.421,0.215l8.22,11.358
			c0.059,0.081,0.092,0.177,0.098,0.277l3.178,59.11l0.279,0.132c0.177,0.084,0.292,0.26,0.297,0.455l0.139,5.341
			c0.004,0.141-0.049,0.276-0.147,0.376C112.426,114.015,112.291,114.071,112.152,114.071z M88.628,113.034h22.991l-0.119-4.489
			l-0.269-0.128c-0.173-0.081-0.286-0.251-0.296-0.44l-3.187-59.266l-7.706-10.647L92.5,48.707l-3.18,59.13
			c-0.012,0.209-0.146,0.39-0.342,0.459l-0.235,0.087L88.628,113.034z"/>
	</g>
	<path fill="#95BA6D" stroke="#748E50" stroke-width="4" stroke-linejoin="round" d="M91.817,48.53"/>
	<rect x="91.99" y="48.27" fill="#748E50" width="16.268" height="0.52"/>
	<rect x="92.4" y="46.971" fill="#748E50" width="14.917" height="0.52"/>
	<rect x="91.817" y="51.643" fill="#748E50" width="16.638" height="0.52"/>
	<rect x="94.013" y="45.674" fill="#748E50" width="12.168" height="0.518"/>
	<rect x="94.749" y="44.375" fill="#748E50" width="10.394" height="0.52"/>
	<rect x="95.624" y="43.078" fill="#748E50" width="8.999" height="0.52"/>
	<rect x="96.489" y="41.779" fill="#748E50" width="7.071" height="0.52"/>
	<rect x="97.009" y="40.482" fill="#748E50" width="5.278" height="0.518"/>
	<rect x="98.047" y="39.184" fill="#748E50" width="3.98" height="0.52"/>
	<path fill="none" stroke="#748E50" stroke-width="7" stroke-linejoin="round" d="M106.181,45.674"/>
	<path fill="none" stroke="#748E50" stroke-width="7" stroke-linejoin="round" d="M94.586,45.674"/>
	<path fill="none" stroke="#748E50" stroke-width="7" stroke-linejoin="round" d="M104.623,43.078"/>
	<path fill="none" stroke="#748E50" stroke-width="7" stroke-linejoin="round" d="M95.624,43.078"/>
	
		<rect x="91.877" y="48.511" transform="matrix(0.9993 0.0376 -0.0376 0.9993 3.1155 -3.4104)" fill="#748E50" width="0.519" height="65.059"/>
	
		<rect x="75.7" y="80.781" transform="matrix(0.0337 0.9994 -0.9994 0.0337 185.5726 -29.8634)" fill="#748E50" width="65.061" height="0.519"/>
	<rect x="93.807" y="108.603" fill="#748E50" width="2.597" height="2.595"/>
	<rect x="93.807" y="111.587" fill="#748E50" width="2.597" height="0.26"/>
	<rect x="97.182" y="108.603" fill="#748E50" width="2.596" height="2.595"/>
	<rect x="97.182" y="111.587" fill="#748E50" width="2.596" height="0.26"/>
	<rect x="100.556" y="108.603" fill="#748E50" width="2.597" height="2.595"/>
	<rect x="100.556" y="111.587" fill="#748E50" width="2.597" height="0.26"/>
	<rect x="103.932" y="108.603" fill="#748E50" width="2.596" height="2.595"/>
	<rect x="103.932" y="111.587" fill="#748E50" width="2.596" height="0.26"/>
	<rect x="93.807" y="103.669" fill="#748E50" width="2.597" height="2.596"/>
	<rect x="93.807" y="106.654" fill="#748E50" width="2.597" height="0.26"/>
	<rect x="97.182" y="103.669" fill="#748E50" width="2.596" height="2.596"/>
	<rect x="97.182" y="106.654" fill="#748E50" width="2.596" height="0.26"/>
	<rect x="100.556" y="103.669" fill="#748E50" width="2.597" height="2.596"/>
	<rect x="100.556" y="106.654" fill="#748E50" width="2.597" height="0.26"/>
	<rect x="103.932" y="103.669" fill="#748E50" width="2.596" height="2.596"/>
	<rect x="103.932" y="106.654" fill="#748E50" width="2.596" height="0.26"/>
	<rect x="93.807" y="98.737" fill="#748E50" width="2.597" height="2.596"/>
	<rect x="93.807" y="101.723" fill="#748E50" width="2.597" height="0.26"/>
	<rect x="97.182" y="98.737" fill="#748E50" width="2.596" height="2.596"/>
	<rect x="97.182" y="101.723" fill="#748E50" width="2.596" height="0.26"/>
	<rect x="100.556" y="98.737" fill="#748E50" width="2.597" height="2.596"/>
	<rect x="100.556" y="101.723" fill="#748E50" width="2.597" height="0.26"/>
	<rect x="103.932" y="98.737" fill="#748E50" width="2.596" height="2.596"/>
	<rect x="103.932" y="101.723" fill="#748E50" width="2.596" height="0.26"/>
	<rect x="93.807" y="93.806" fill="#748E50" width="2.597" height="2.596"/>
	<rect x="93.807" y="96.791" fill="#748E50" width="2.597" height="0.26"/>
	<rect x="97.182" y="93.806" fill="#748E50" width="2.596" height="2.596"/>
	<rect x="97.182" y="96.791" fill="#748E50" width="2.596" height="0.26"/>
	<rect x="100.556" y="93.806" fill="#748E50" width="2.597" height="2.596"/>
	<rect x="100.556" y="96.791" fill="#748E50" width="2.597" height="0.26"/>
	<rect x="103.932" y="93.806" fill="#748E50" width="2.596" height="2.596"/>
	<rect x="103.932" y="96.791" fill="#748E50" width="2.596" height="0.26"/>
	<rect x="93.807" y="88.873" fill="#748E50" width="2.597" height="2.597"/>
	<rect x="93.807" y="91.859" fill="#748E50" width="2.597" height="0.258"/>
	<rect x="97.182" y="88.873" fill="#748E50" width="2.596" height="2.597"/>
	<rect x="97.182" y="91.859" fill="#748E50" width="2.596" height="0.258"/>
	<rect x="100.556" y="88.873" fill="#748E50" width="2.597" height="2.597"/>
	<rect x="100.556" y="91.859" fill="#748E50" width="2.597" height="0.258"/>
	<rect x="103.932" y="88.873" fill="#748E50" width="2.596" height="2.597"/>
	<rect x="103.932" y="91.859" fill="#748E50" width="2.596" height="0.258"/>
	<rect x="93.807" y="83.939" fill="#748E50" width="2.597" height="2.598"/>
	<rect x="93.807" y="86.925" fill="#748E50" width="2.597" height="0.26"/>
	<rect x="97.182" y="83.939" fill="#748E50" width="2.596" height="2.598"/>
	<rect x="97.182" y="86.925" fill="#748E50" width="2.596" height="0.26"/>
	<rect x="100.556" y="83.939" fill="#748E50" width="2.597" height="2.598"/>
	<rect x="100.556" y="86.925" fill="#748E50" width="2.597" height="0.26"/>
	<rect x="103.932" y="83.939" fill="#748E50" width="2.596" height="2.598"/>
	<rect x="103.932" y="86.925" fill="#748E50" width="2.596" height="0.26"/>
	<rect x="93.807" y="79.008" fill="#748E50" width="2.597" height="2.598"/>
	<rect x="93.807" y="81.993" fill="#748E50" width="2.597" height="0.26"/>
	<rect x="97.182" y="79.008" fill="#748E50" width="2.596" height="2.598"/>
	<rect x="97.182" y="81.993" fill="#748E50" width="2.596" height="0.26"/>
	<rect x="100.556" y="79.008" fill="#748E50" width="2.597" height="2.598"/>
	<rect x="100.556" y="81.993" fill="#748E50" width="2.597" height="0.26"/>
	<rect x="103.932" y="79.008" fill="#748E50" width="2.596" height="2.598"/>
	<rect x="103.932" y="81.993" fill="#748E50" width="2.596" height="0.26"/>
	<rect x="93.807" y="74.076" fill="#748E50" width="2.597" height="2.598"/>
	<rect x="93.807" y="77.062" fill="#748E50" width="2.597" height="0.26"/>
	<rect x="97.182" y="74.076" fill="#748E50" width="2.596" height="2.598"/>
	<rect x="97.182" y="77.062" fill="#748E50" width="2.596" height="0.26"/>
	<rect x="100.556" y="74.076" fill="#748E50" width="2.597" height="2.598"/>
	<rect x="100.556" y="77.062" fill="#748E50" width="2.597" height="0.26"/>
	<rect x="103.932" y="74.076" fill="#748E50" width="2.596" height="2.598"/>
	<rect x="103.932" y="77.062" fill="#748E50" width="2.596" height="0.26"/>
	<rect x="93.807" y="69.144" fill="#748E50" width="2.597" height="2.598"/>
	<rect x="93.807" y="72.129" fill="#748E50" width="2.597" height="0.26"/>
	<rect x="97.182" y="69.144" fill="#748E50" width="2.596" height="2.598"/>
	<rect x="97.182" y="72.129" fill="#748E50" width="2.596" height="0.26"/>
	<rect x="100.556" y="69.144" fill="#748E50" width="2.597" height="2.598"/>
	<rect x="100.556" y="72.129" fill="#748E50" width="2.597" height="0.26"/>
	<rect x="103.932" y="69.144" fill="#748E50" width="2.596" height="2.598"/>
	<rect x="103.932" y="72.129" fill="#748E50" width="2.596" height="0.26"/>
	<rect x="93.807" y="64.212" fill="#748E50" width="2.597" height="2.596"/>
	<rect x="93.807" y="67.197" fill="#748E50" width="2.597" height="0.26"/>
	<rect x="97.182" y="64.212" fill="#748E50" width="2.596" height="2.596"/>
	<rect x="97.182" y="67.197" fill="#748E50" width="2.596" height="0.26"/>
	<rect x="100.556" y="64.212" fill="#748E50" width="2.597" height="2.596"/>
	<rect x="100.556" y="67.197" fill="#748E50" width="2.597" height="0.26"/>
	<rect x="103.932" y="64.212" fill="#748E50" width="2.596" height="2.596"/>
	<rect x="103.932" y="67.197" fill="#748E50" width="2.596" height="0.26"/>
	<rect x="93.807" y="59.28" fill="#748E50" width="2.597" height="2.596"/>
	<rect x="93.807" y="62.266" fill="#748E50" width="2.597" height="0.26"/>
	<rect x="97.182" y="59.28" fill="#748E50" width="2.596" height="2.596"/>
	<rect x="97.182" y="62.266" fill="#748E50" width="2.596" height="0.26"/>
	<rect x="100.556" y="59.28" fill="#748E50" width="2.597" height="2.596"/>
	<rect x="100.556" y="62.266" fill="#748E50" width="2.597" height="0.26"/>
	<rect x="103.932" y="59.28" fill="#748E50" width="2.596" height="2.596"/>
	<rect x="103.932" y="62.266" fill="#748E50" width="2.596" height="0.26"/>
	<rect x="93.807" y="53.049" fill="#748E50" width="2.597" height="2.596"/>
	<rect x="93.807" y="56.035" fill="#748E50" width="2.597" height="0.26"/>
	<rect x="97.182" y="53.049" fill="#748E50" width="2.596" height="2.596"/>
	<rect x="97.182" y="56.035" fill="#748E50" width="2.596" height="0.26"/>
	<rect x="100.556" y="53.049" fill="#748E50" width="2.597" height="2.596"/>
	<rect x="100.556" y="56.035" fill="#748E50" width="2.597" height="0.26"/>
	<rect x="103.932" y="53.049" fill="#748E50" width="2.596" height="2.596"/>
	<rect x="103.932" y="56.035" fill="#748E50" width="2.596" height="0.26"/>
	<rect x="93.807" y="56.771" fill="#748E50" width="12.721" height="1.946"/>
	<rect x="91.817" y="50.063" fill="#748E50" width="16.628" height="1.04"/>
	<rect x="91.817" y="48.507" fill="#748E50" width="16.628" height="1.037"/>
	<g>
		<polygon fill="#95BA6D" points="64.625,113.409 29.427,113.409 29.427,4.793 37.507,2.213 56.547,2.213 64.625,4.793 		"/>
		<path fill="#748E50" d="M64.625,113.927H29.427c-0.287,0-0.52-0.231-0.52-0.518V4.793c0-0.226,0.146-0.427,0.362-0.495
			l8.079-2.581c0.051-0.017,0.104-0.024,0.158-0.024h19.041c0.054,0,0.106,0.007,0.158,0.024l8.078,2.581
			c0.215,0.068,0.361,0.27,0.361,0.495v108.616C65.145,113.695,64.913,113.927,64.625,113.927z M29.946,112.89h34.16V5.172
			l-7.64-2.439H37.588l-7.642,2.439V112.89z"/>
	</g>
	<g>
		<line fill="#95BA6D" x1="56.547" y1="2.988" x2="56.547" y2="113.554"/>
		<rect x="56.028" y="2.988" fill="#748E50" width="1.038" height="110.565"/>
	</g>
	<g>
		<line fill="#95BA6D" x1="37.857" y1="2.213" x2="37.857" y2="113.554"/>
		<rect x="37.337" y="2.213" fill="#748E50" width="1.039" height="111.341"/>
	</g>
	<g>
		<line fill="#95BA6D" x1="35.78" y1="3.331" x2="35.78" y2="113.554"/>
		<rect x="35.261" y="3.331" fill="#748E50" width="1.039" height="110.223"/>
	</g>
	<g>
		<line fill="#95BA6D" x1="33.703" y1="3.918" x2="33.703" y2="113.554"/>
		<rect x="33.184" y="3.918" fill="#748E50" width="1.039" height="109.635"/>
	</g>
	<g>
		<line fill="#95BA6D" x1="31.626" y1="4.016" x2="31.626" y2="113.554"/>
		<rect x="31.107" y="4.016" fill="#748E50" width="1.038" height="109.538"/>
	</g>
	<g>
		<line fill="#95BA6D" x1="58.624" y1="3.331" x2="58.624" y2="113.554"/>
		<rect x="58.105" y="3.331" fill="#748E50" width="1.038" height="110.223"/>
	</g>
	<g>
		<line fill="#95BA6D" x1="60.701" y1="3.367" x2="60.701" y2="113.554"/>
		<rect x="60.181" y="3.367" fill="#748E50" width="1.038" height="110.187"/>
	</g>
	<g>
		<line fill="#95BA6D" x1="62.777" y1="4.016" x2="62.777" y2="113.554"/>
		<rect x="62.259" y="4.016" fill="#748E50" width="1.038" height="109.538"/>
	</g>
	<polygon fill="#748E50" points="38.117,2.463 29.427,4.801 29.427,10.223 38.117,7.886 	"/>
	<polygon fill="#748E50" points="56.356,2.463 65.045,4.801 65.045,10.223 56.356,7.886 	"/>
	<rect x="38.117" y="2.463" fill="#748E50" width="18.786" height="5.423"/>
	<polygon fill="#748E50" points="38.117,88.13 29.427,90.464 29.427,95.888 38.117,93.551 	"/>
	<polygon fill="#748E50" points="56.356,88.13 65.045,90.464 65.045,95.888 56.356,93.551 	"/>
	<rect x="38.117" y="88.13" fill="#748E50" width="18.062" height="5.421"/>
	<g>
		<rect x="64.786" y="90.841" fill="#95BA6D" width="18.435" height="22.568"/>
		<path fill="#748E50" d="M83.22,113.927H64.786c-0.287,0-0.52-0.231-0.52-0.518V90.841c0-0.288,0.232-0.52,0.52-0.52H83.22
			c0.287,0,0.519,0.231,0.519,0.52v22.568C83.739,113.695,83.507,113.927,83.22,113.927z M65.304,112.89h17.396V91.36H65.304V112.89
			z"/>
	</g>
	<rect x="64.971" y="90.841" fill="#748E50" width="18.062" height="5.421"/>
	<g>
		<rect x="232.889" y="83.109" fill="#748E50" width="3.375" height="8.565"/>
		<g>
			<polygon fill="#95BA6D" points="286.656,105.303 289.771,108.289 254.694,108.289 254.694,102.319 286.656,102.319 			"/>
			<path fill="#748E50" d="M289.771,108.809h-35.077c-0.286,0-0.52-0.232-0.52-0.52v-5.97c0-0.288,0.233-0.52,0.52-0.52h31.962
				c0.288,0,0.52,0.231,0.52,0.52v2.764l2.953,2.831c0.154,0.146,0.203,0.371,0.125,0.568
				C290.175,108.68,289.982,108.809,289.771,108.809z M255.214,107.771h33.267l-2.184-2.091c-0.102-0.1-0.16-0.233-0.16-0.377
				v-2.466h-30.923V107.771z"/>
		</g>
		<rect x="230.293" y="95.448" fill="#748E50" width="26.359" height="7.129"/>
		<g>
			<polygon fill="#95BA6D" points="233.668,97.646 254.694,97.646 254.694,113.501 212.642,113.501 212.642,78.436 233.668,78.436 
							"/>
			<path fill="#748E50" d="M254.694,114.021h-42.053c-0.286,0-0.52-0.233-0.52-0.52V78.436c0-0.286,0.233-0.52,0.52-0.52h21.026
				c0.286,0,0.52,0.233,0.52,0.52v18.69h20.507c0.286,0,0.52,0.233,0.52,0.52v15.855
				C255.214,113.787,254.98,114.021,254.694,114.021z M213.161,112.981h41.014V98.165h-20.507c-0.286,0-0.52-0.231-0.52-0.52v-18.69
				h-19.987V112.981z"/>
		</g>
		<rect x="225.621" y="69.351" fill="#748E50" width="2.076" height="9.085"/>
		<rect x="212.642" y="84.406" fill="#748E50" width="5.191" height="1.039"/>
		<rect x="212.642" y="86.223" fill="#748E50" width="5.191" height="1.039"/>
		<rect x="212.642" y="89.598" fill="#748E50" width="5.191" height="1.04"/>
		<rect x="223.025" y="81.811" fill="#748E50" width="5.191" height="1.039"/>
		<rect x="223.025" y="83.367" fill="#748E50" width="5.191" height="1.039"/>
		<rect x="228.217" y="85.965" fill="#748E50" width="5.191" height="1.037"/>
		<rect x="228.217" y="88.561" fill="#748E50" width="5.191" height="1.037"/>
		<rect x="228.217" y="90.638" fill="#748E50" width="5.191" height="1.037"/>
		<rect x="228.217" y="95.829" fill="#748E50" width="5.191" height="1.039"/>
		<rect x="233.538" y="102.837" fill="#748E50" width="20.767" height="1.559"/>
		<rect x="244.052" y="106.212" fill="#748E50" width="5.191" height="1.039"/>
		<rect x="233.408" y="108.029" fill="#748E50" width="10.384" height="1.039"/>
		<rect x="223.025" y="79.475" fill="#748E50" width="5.191" height="1.039"/>
		<rect x="212.642" y="91.935" fill="#748E50" width="5.191" height="1.039"/>
		<rect x="212.642" y="103.443" fill="#748E50" width="5.047" height="2.596"/>
		<rect x="244.182" y="99.464" fill="#748E50" width="4.932" height="2.596"/>
		<rect x="261.186" y="104.308" fill="#748E50" width="1.297" height="2.078"/>
		<rect x="264.171" y="104.957" fill="#748E50" width="2.074" height="1.299"/>
		<rect x="267.674" y="105.562" fill="#748E50" width="2.336" height="1.299"/>
		<rect x="272.088" y="103.097" fill="#748E50" width="1.297" height="2.596"/>
		<rect x="279.874" y="103.788" fill="#748E50" width="1.559" height="2.598"/>
		<rect x="273.53" y="106.256" fill="#748E50" width="2.598" height="1.037"/>
		<polygon fill="#748E50" points="286.774,105.606 259.86,104.308 254.42,104.134 254.452,103.097 259.901,103.271 286.823,104.569 
					"/>
	</g>
</g>
</svg>
